<?xml version="1.0" standalone="no"?>
<!DOCTYPE svg PUBLIC "-//W3C//DTD SVG 20010904//EN"
 "http://www.w3.org/TR/2001/REC-SVG-20010904/DTD/svg10.dtd">
<svg version="1.0" xmlns="http://www.w3.org/2000/svg"
 width="260.000000pt" height="260.000000pt" viewBox="0 0 260.000000 260.000000"
 preserveAspectRatio="xMidYMid meet">
<metadata>
Created by potrace 1.14, written by Peter Selinger 2001-2017
</metadata>
<g transform="translate(0.000000,260.000000) scale(0.100000,-0.100000)"
fill="#000000" stroke="none">
<path d="M0 1300 l0 -1300 1300 0 1300 0 0 1300 0 1300 -1300 0 -1300 0 0
-1300z m2460 0 l0 -1200 -1160 0 -1160 0 0 1200 0 1200 1160 0 1160 0 0 -1200z"/>
<path d="M150 1305 l0 -1185 1145 0 1145 0 0 1185 0 1185 -1145 0 -1145 0 0
-1185z m2230 -5 l0 -1130 -1085 0 -1085 0 0 1130 0 1130 1085 0 1085 0 0
-1130z"/>
<path d="M227 2413 c-4 -3 -7 -505 -7 -1115 l0 -1108 1075 0 1075 0 -2 1113
-3 1112 -1066 3 c-586 1 -1069 -1 -1072 -5z m703 -335 c49 -25 84 -70 100
-127 5 -20 10 -116 10 -214 l0 -178 -62 3 -63 3 -5 170 c-3 94 -9 177 -13 187
-23 46 -121 47 -157 1 -20 -25 -20 -37 -20 -610 0 -600 1 -611 39 -640 25 -19
95 -16 122 6 24 19 24 23 27 220 l3 201 65 0 64 0 0 -204 c0 -223 -8 -266 -58
-320 -39 -42 -82 -56 -167 -56 -114 0 -173 31 -218 115 -22 40 -22 47 -25 649
-3 687 -3 685 66 754 46 46 86 60 177 61 55 1 81 -4 115 -21z m516 3 c23 -10
53 -34 66 -52 44 -59 52 -101 52 -289 l1 -175 -65 0 -65 0 -5 175 c-3 96 -8
180 -12 186 -14 21 -67 36 -102 30 -20 -4 -44 -18 -56 -33 -20 -25 -20 -37
-20 -614 l0 -587 26 -31 c21 -26 33 -31 69 -31 27 0 51 7 66 19 23 19 24 24
29 218 l5 198 68 3 67 3 0 -158 c-1 -272 -25 -360 -113 -402 -49 -24 -154 -29
-220 -10 -52 14 -102 61 -124 117 -17 44 -18 92 -18 662 0 654 -1 643 48 714
48 69 209 100 303 57z m599 -66 l0 -70 -137 -3 -138 -3 0 -274 0 -275 95 0 96
0 -3 -72 -3 -73 -92 -3 -93 -3 0 -355 0 -355 -72 3 -73 3 -3 765 c-1 421 0
771 3 778 3 10 52 12 212 10 l208 -3 0 -70z"/>
</g>
</svg>
